<?xml version="1.0" standalone="no"?>
<!DOCTYPE svg PUBLIC "-//W3C//DTD SVG 20010904//EN"
 "http://www.w3.org/TR/2001/REC-SVG-20010904/DTD/svg10.dtd">
<svg version="1.0" xmlns="http://www.w3.org/2000/svg"
 width="100.000000pt" height="100.000000pt" viewBox="0 0 100.000000 100.000000"
 preserveAspectRatio="xMidYMid meet">
<metadata>
Created by potrace 1.14, written by Peter Selinger 2001-2017
</metadata>
<g transform="translate(0.000000,100.000000) scale(0.100000,-0.100000)"
fill="#000000" stroke="none">
<path d="M379 876 c-15 -17 -38 -44 -50 -59 -17 -19 -43 -33 -84 -43 -74 -20
-84 -27 -83 -67 1 -61 33 -75 60 -27 31 54 105 52 138 -3 l19 -32 118 1 c86 2
118 5 122 15 8 25 54 59 81 59 31 0 80 -34 80 -56 0 -18 39 -18 46 0 5 13 8
59 5 82 0 6 -19 19 -42 29 -29 13 -51 35 -75 72 -18 29 -37 54 -41 54 -5 1
-66 3 -138 4 l-130 2 -26 -31z"/>
<path d="M251 671 c-25 -47 -4 -85 45 -79 36 4 51 29 38 65 -12 36 -67 46 -83
14z"/>
<path d="M666 674 c-19 -18 -20 -38 -6 -65 12 -22 59 -26 78 -7 15 15 15 61 0
76 -17 17 -54 15 -72 -4z"/>
<path d="M45 570 c-20 -22 -17 -43 26 -186 l19 -61 100 -59 c77 -44 102 -64
106 -84 3 -14 10 -39 15 -56 l10 -32 77 30 c42 16 80 33 84 37 10 9 -55 216
-73 233 -8 7 -42 35 -77 61 -72 56 -110 61 -126 14 -9 -24 -6 -31 24 -62 43
-45 32 -56 -20 -20 -34 23 -43 38 -62 99 -33 106 -63 131 -103 86z"/>
<path d="M892 573 c-12 -10 -29 -48 -39 -87 -17 -60 -24 -73 -61 -99 -52 -38
-67 -28 -24 16 18 18 32 40 32 49 0 23 -27 48 -52 48 -19 0 -140 -88 -165
-120 -11 -14 -68 -194 -68 -213 0 -5 37 -24 82 -42 l82 -33 10 31 c5 18 12 43
15 57 4 19 29 39 105 83 l101 58 24 82 c38 128 40 146 20 168 -21 24 -36 24
-62 2z"/>
</g>
</svg>
